<svg id="Calque_1" data-name="Calque 1" xmlns="http://www.w3.org/2000/svg" viewBox="-5 35 90 88"><defs><style>.cls-1{fill:#414750;}.cls-2{fill:#a4c854;}.cls-3{fill:#f9f9fa;}.cls-4{fill:#fff;}</style></defs><path class="cls-1" d="M32.85,125.2a29.8,29.8,0,0,0-6.71,6.06,31.94,31.94,0,0,0-4.55,7.47A33.5,33.5,0,0,0,19.21,147a31.35,31.35,0,0,0-.11,8.6L6.44,163.3a30.41,30.41,0,0,0,3.36-3.46,34.75,34.75,0,0,0,2.54-3.41,10.1,10.1,0,0,0,1.57-3.74,36.4,36.4,0,0,1,.92-9,39.41,39.41,0,0,1,3-8.6,35.95,35.95,0,0,1,12.18-14,36.65,36.65,0,0,1,11.25-5.31,37.25,37.25,0,0,1,11.91-1.29A36.62,36.62,0,0,1,64.78,117a35.78,35.78,0,0,1,10.28,6.22l-2.6,1.46-1.51.87q-.66.38-1.41.87c-.5.32-1.3.84-2.38,1.56a4.35,4.35,0,0,0,.43-1.29,5.7,5.7,0,0,0,.06-1.36,3.65,3.65,0,0,0-.6-1.67,30.09,30.09,0,0,0-8.22-3.31,32.94,32.94,0,0,0-17.7.71A31.38,31.38,0,0,0,32.85,125.2Zm13.2,24H81.66v23.49A40.31,40.31,0,0,1,77.33,178a30.68,30.68,0,0,1-5.19,4.28,35.49,35.49,0,0,1-13.64,5.84A37.65,37.65,0,0,1,31,183,35.5,35.5,0,0,1,20.4,172.72a33.48,33.48,0,0,1-3.19-6,55.26,55.26,0,0,1-2.11-6.33l4.33-2.71a31.68,31.68,0,0,0,5.09,12.23,31.27,31.27,0,0,0,9.2,8.93,32.25,32.25,0,0,0,23.81,4.44,31.47,31.47,0,0,0,11.79-5,32.3,32.3,0,0,0,4-3.3,31.35,31.35,0,0,0,3.35-3.84V154.21H46.05Zm39.08-29A34.9,34.9,0,0,0,81.88,123a17.49,17.49,0,0,0-2.06,2.43,2,2,0,0,0-.43,2.11,24,24,0,0,1,2.27,3l-4.11,2.82a25.74,25.74,0,0,0-5.41-6.17Z" transform="translate(-6.44 -72.01)"/><polygon class="cls-2" points="48.69 82.76 49.06 82.27 71.94 79.82 52.52 77.67 67.97 57.19 46.11 73.24 43.8 51.59 41.16 75.41 32.03 68.09 39.38 77.21 16.14 79.76 15.57 79.82 36.58 82.08 20.65 103.2 41.59 87.82 43.74 107.4 43.8 107.96 46.37 84.13 55.22 91.19 55.48 91.4 48.48 82.76 48.69 82.76"/><circle class="cls-3" cx="43.9" cy="79.91" r="4.96"/><polygon class="cls-1" points="13.12 77.82 13.12 81.67 15.8 79.74 13.12 77.82"/><polygon class="cls-1" points="41.97 111.4 45.82 111.4 43.9 108.72 41.97 111.4"/><polygon class="cls-4" points="73.87 81.67 73.87 77.82 71.19 79.74 73.87 81.67"/></svg>